<svg width="65" height="62" viewBox="0 0 65 62" fill="none" xmlns="http://www.w3.org/2000/svg">
<path d="M55.875 7.5H52.625V4.25H49.375V7.5H39.625V4.25H36.375V7.5H33.125C31.3326 7.5 29.875 8.95762 29.875 10.75V33.5C29.875 35.2924 31.3326 36.75 33.125 36.75H55.875C57.6674 36.75 59.125 35.2924 59.125 33.5V10.75C59.125 8.95762 57.6674 7.5 55.875 7.5ZM54.25 31.875H44.5V22.125H54.25V31.875ZM55.875 15.625H33.125V12.375H55.875V15.625Z" fill="#C293FF"/>
<path d="M50.2249 27.9485L46.5696 24.3952L45 25.921L50.2249 31L61 20.5258L59.4304 19L50.2249 27.9485Z" fill="#FFF500"/>
<path d="M40 40.965V32C40 23.9575 34.5375 17.1825 27.1375 15.145C26.405 13.3 24.615 12 22.5 12C20.385 12 18.595 13.3 17.8625 15.145C10.4625 17.185 5 23.9575 5 32V40.965L0.732502 45.2325C0.499896 45.4643 0.315427 45.7397 0.189713 46.0431C0.0640003 46.3464 -0.000473622 46.6716 2.61918e-06 47V52C2.61918e-06 52.663 0.263395 53.2989 0.732235 53.7678C1.20108 54.2366 1.83696 54.5 2.5 54.5H42.5C43.163 54.5 43.7989 54.2366 44.2678 53.7678C44.7366 53.2989 45 52.663 45 52V47C45.0005 46.6716 44.936 46.3464 44.8103 46.0431C44.6846 45.7397 44.5001 45.4643 44.2675 45.2325L40 40.965ZM40 49.5H5V48.035L9.2675 43.7675C9.50011 43.5357 9.68458 43.2603 9.81029 42.9569C9.936 42.6536 10.0005 42.3284 10 42V32C10 25.1075 15.6075 19.5 22.5 19.5C29.3925 19.5 35 25.1075 35 32V42C35 42.665 35.2625 43.3 35.7325 43.7675L40 48.035V49.5ZM22.5 62C24.0482 62.0019 25.5586 61.5215 26.8212 60.6254C28.0838 59.7293 29.0358 58.4621 29.545 57H15.455C15.9642 58.4621 16.9162 59.7293 18.1788 60.6254C19.4414 61.5215 20.9517 62.0019 22.5 62Z" fill="#E5D1FF"/>
</svg>
