<svg width="50" height="50" viewBox="0 0 50 50" fill="none" xmlns="http://www.w3.org/2000/svg">
<path d="M38.542 19.8127C36.9796 19.2746 35.6005 18.307 34.5628 17.021C33.4192 15.5882 31.9629 14.4359 30.3055 13.6523C28.6481 12.8687 26.8335 12.4746 25.0003 12.5002C22.5344 12.3255 20.0932 13.0861 18.1628 14.6304C16.2325 16.1747 14.9546 18.3894 14.5837 20.8335C15.3142 19.6111 16.4138 18.652 17.7241 18.0942C19.0344 17.5364 20.4878 17.4086 21.8753 17.7293C23.4351 18.2831 24.812 19.2563 25.8545 20.5418C27.0044 21.9632 28.4634 23.1036 30.1205 23.8762C31.7775 24.6488 33.589 25.0332 35.417 25.0002C37.8829 25.1748 40.3241 24.4142 42.2545 22.8699C44.1849 21.3257 45.4627 19.1109 45.8337 16.6668C45.1164 17.9039 44.0203 18.8775 42.7073 19.4439C41.3944 20.0104 39.9341 20.1397 38.542 19.8127ZM11.4587 30.1877C13.021 30.7258 14.4002 31.6933 15.4378 32.9793C16.5815 34.4122 18.0377 35.5645 19.6951 36.348C21.3525 37.1316 23.1672 37.5257 25.0003 37.5002C27.4662 37.6748 29.9074 36.9142 31.8378 35.3699C33.7682 33.8256 35.0461 31.6109 35.417 29.1668C34.6864 30.3892 33.5869 31.3484 32.2766 31.9062C30.9663 32.464 29.5128 32.5917 28.1253 32.271C26.5656 31.7172 25.1887 30.7441 24.1462 29.4585C22.9932 28.0406 21.5336 26.9027 19.8772 26.1305C18.2209 25.3583 16.411 24.9718 14.5837 25.0002C12.1178 24.8255 9.67654 25.5861 7.74617 27.1304C5.8158 28.6747 4.53791 30.8894 4.16699 33.3335C4.8843 32.0965 5.98034 31.1229 7.29331 30.5564C8.60628 29.99 10.0666 29.8607 11.4587 30.1877Z" fill="#E5D1FF"/>
</svg>
