<svg width="50" height="50" viewBox="0 0 50 50" fill="none" xmlns="http://www.w3.org/2000/svg">
<path fill-rule="evenodd" clip-rule="evenodd" d="M25.0546 4.1665C13.5775 4.1665 4.27539 13.4686 4.27539 24.9457C4.27539 34.1248 10.2275 41.9144 18.4858 44.6644C19.5254 44.8519 19.9004 44.2123 19.9004 43.6623C19.9004 43.1686 19.8837 41.8603 19.8775 40.129C14.0962 41.3832 12.8754 37.3415 12.8754 37.3415C11.9337 34.9415 10.5691 34.3019 10.5691 34.3019C8.68372 33.0123 10.7129 33.0415 10.7129 33.0415C12.8004 33.1873 13.8941 35.1832 13.8941 35.1832C15.7483 38.3582 18.7608 37.4415 19.94 36.9103C20.1296 35.5665 20.6712 34.6498 21.2629 34.1311C16.6504 33.6082 11.8004 31.8248 11.8004 23.8603C11.8004 21.5957 12.6108 19.7373 13.9337 18.2873C13.7233 17.7603 13.0046 15.6457 14.14 12.7873C14.14 12.7873 15.8837 12.2269 19.8525 14.9144C21.5475 14.4533 23.2959 14.218 25.0525 14.2144C26.8091 14.2173 28.5576 14.4526 30.2525 14.9144C34.2233 12.2248 35.965 12.7873 35.965 12.7873C37.1004 15.6457 36.3879 17.7603 36.1712 18.2873C37.5046 19.7373 38.3046 21.5936 38.3046 23.8603C38.3046 31.8457 33.4504 33.5998 28.8212 34.1144C29.5608 34.7561 30.2275 36.0228 30.2275 37.9603C30.2275 40.7394 30.2025 42.9811 30.2025 43.6623C30.2025 44.2186 30.5733 44.8644 31.6337 44.6603C39.8879 41.9061 45.8337 34.1228 45.8337 24.9457C45.8337 13.4686 36.5316 4.1665 25.0546 4.1665Z" fill="#E5D1FF"/>
</svg>
