<svg xmlns="http://www.w3.org/2000/svg" xmlns:xlink="http://www.w3.org/1999/xlink" width="500" zoomAndPan="magnify" viewBox="0 0 375 374.999991" height="500" preserveAspectRatio="xMidYMid meet" version="1.0"><defs><clipPath id="8fcab1d992"><path d="M 12.65625 321 L 181 321 L 181 375 L 12.65625 375 Z M 12.65625 321 " clip-rule="nonzero"/></clipPath></defs><path fill="#000000" d="M 262.929688 321.835938 L 262.929688 336.101562 C 262.929688 336.515625 262.890625 336.929688 262.808594 337.335938 C 262.730469 337.742188 262.609375 338.136719 262.449219 338.519531 C 262.292969 338.90625 262.097656 339.269531 261.867188 339.613281 C 261.636719 339.960938 261.375 340.277344 261.078125 340.574219 C 260.785156 340.867188 260.46875 341.128906 260.121094 341.359375 C 259.777344 341.589844 259.414062 341.785156 259.03125 341.945312 C 258.644531 342.101562 258.25 342.222656 257.84375 342.304688 C 257.4375 342.382812 257.027344 342.425781 256.609375 342.425781 L 228.390625 342.425781 L 217.648438 358.574219 C 217.4375 358.894531 217.195312 359.191406 216.929688 359.464844 C 216.664062 359.738281 216.378906 359.988281 216.066406 360.210938 C 215.757812 360.433594 215.429688 360.625 215.082031 360.789062 C 214.738281 360.953125 214.378906 361.082031 214.007812 361.183594 C 213.640625 361.28125 213.265625 361.34375 212.882812 361.375 C 212.503906 361.402344 212.121094 361.398438 211.742188 361.359375 C 211.363281 361.320312 210.988281 361.25 210.621094 361.140625 C 210.253906 361.035156 209.898438 360.894531 209.558594 360.726562 L 193.410156 352.65625 L 193.410156 374.042969 L 361.683594 374.042969 C 354.839844 367.539062 347.585938 361.53125 339.917969 356.019531 C 332.25 350.507812 324.246094 345.546875 315.898438 341.136719 C 307.554688 336.722656 298.945312 332.902344 290.074219 329.667969 C 281.207031 326.4375 272.160156 323.828125 262.929688 321.835938 Z M 262.929688 321.835938 " fill-opacity="1" fill-rule="nonzero"/><path fill="#000000" d="M 193.410156 333.355469 L 193.410156 338.515625 L 210.210938 346.914062 L 219.753906 332.59375 C 220.339844 331.710938 221.097656 331.023438 222.027344 330.527344 C 222.960938 330.027344 223.953125 329.777344 225.011719 329.777344 L 250.289062 329.777344 L 250.289062 319.476562 C 240.386719 317.964844 230.421875 317.183594 220.402344 317.132812 Z M 193.410156 333.355469 " fill-opacity="1" fill-rule="nonzero"/><path fill="#000000" d="M 262.929688 209.632812 C 262.902344 213.878906 262.523438 218.09375 261.789062 222.277344 L 262.929688 222.277344 C 263.761719 222.277344 264.582031 222.199219 265.398438 222.035156 C 266.210938 221.875 267 221.632812 267.769531 221.316406 C 268.535156 221 269.261719 220.609375 269.953125 220.148438 C 270.644531 219.6875 271.28125 219.160156 271.867188 218.574219 C 272.457031 217.988281 272.980469 217.347656 273.441406 216.660156 C 273.902344 215.96875 274.292969 215.238281 274.609375 214.472656 C 274.925781 213.703125 275.167969 212.914062 275.328125 212.097656 C 275.492188 211.285156 275.570312 210.460938 275.570312 209.632812 C 275.570312 208.800781 275.492188 207.980469 275.328125 207.164062 C 275.167969 206.351562 274.925781 205.558594 274.609375 204.792969 C 274.292969 204.023438 273.902344 203.296875 273.441406 202.605469 C 272.980469 201.914062 272.457031 201.277344 271.867188 200.6875 C 271.28125 200.101562 270.644531 199.578125 269.953125 199.117188 C 269.261719 198.65625 268.535156 198.265625 267.769531 197.949219 C 267 197.628906 266.210938 197.390625 265.398438 197.226562 C 264.582031 197.066406 263.761719 196.984375 262.929688 196.984375 Z M 262.929688 209.632812 " fill-opacity="1" fill-rule="nonzero"/><path fill="#000000" d="M 111.25 222.277344 L 112.394531 222.277344 C 111.65625 218.09375 111.277344 213.878906 111.25 209.632812 L 111.25 196.984375 C 110.417969 196.984375 109.597656 197.066406 108.785156 197.226562 C 107.96875 197.390625 107.179688 197.628906 106.414062 197.949219 C 105.644531 198.265625 104.917969 198.65625 104.226562 199.117188 C 103.535156 199.578125 102.898438 200.101562 102.3125 200.6875 C 101.722656 201.277344 101.199219 201.914062 100.738281 202.605469 C 100.277344 203.296875 99.890625 204.023438 99.570312 204.792969 C 99.253906 205.558594 99.015625 206.351562 98.851562 207.164062 C 98.691406 207.980469 98.609375 208.800781 98.609375 209.632812 C 98.609375 210.460938 98.691406 211.285156 98.851562 212.097656 C 99.015625 212.914062 99.253906 213.703125 99.570312 214.472656 C 99.890625 215.238281 100.277344 215.96875 100.738281 216.660156 C 101.199219 217.347656 101.722656 217.988281 102.3125 218.574219 C 102.898438 219.160156 103.535156 219.6875 104.226562 220.148438 C 104.917969 220.609375 105.644531 221 106.414062 221.316406 C 107.179688 221.632812 107.96875 221.875 108.785156 222.035156 C 109.597656 222.199219 110.417969 222.277344 111.25 222.277344 Z M 111.25 222.277344 " fill-opacity="1" fill-rule="nonzero"/><path fill="#000000" d="M 250.289062 152.722656 L 199.730469 152.722656 C 199.730469 153.550781 199.648438 154.375 199.488281 155.1875 C 199.324219 156.003906 199.085938 156.792969 198.769531 157.5625 C 198.449219 158.328125 198.0625 159.058594 197.601562 159.746094 C 197.140625 160.4375 196.613281 161.078125 196.027344 161.664062 C 195.441406 162.25 194.804688 162.773438 194.113281 163.238281 C 193.421875 163.699219 192.695312 164.085938 191.925781 164.40625 C 191.160156 164.722656 190.371094 164.960938 189.554688 165.125 C 188.742188 165.285156 187.921875 165.367188 187.089844 165.367188 C 186.261719 165.367188 185.4375 165.285156 184.625 165.125 C 183.808594 164.960938 183.019531 164.722656 182.253906 164.40625 C 181.484375 164.085938 180.757812 163.699219 180.066406 163.238281 C 179.378906 162.773438 178.738281 162.25 178.152344 161.664062 C 177.566406 161.078125 177.042969 160.4375 176.582031 159.746094 C 176.121094 159.058594 175.730469 158.328125 175.414062 157.5625 C 175.09375 156.792969 174.855469 156.003906 174.691406 155.1875 C 174.53125 154.375 174.449219 153.550781 174.449219 152.722656 L 123.890625 152.722656 L 123.890625 209.632812 C 123.890625 211.703125 123.992188 213.769531 124.195312 215.832031 C 124.398438 217.890625 124.699219 219.9375 125.105469 221.96875 C 125.507812 224 126.011719 226.007812 126.609375 227.988281 C 127.210938 229.96875 127.910156 231.917969 128.699219 233.832031 C 129.492188 235.746094 130.375 237.613281 131.351562 239.441406 C 132.328125 241.265625 133.390625 243.042969 134.539062 244.761719 C 135.691406 246.484375 136.921875 248.148438 138.234375 249.746094 C 139.546875 251.347656 140.9375 252.882812 142.402344 254.347656 C 143.863281 255.808594 145.394531 257.199219 146.996094 258.511719 C 148.597656 259.828125 150.257812 261.058594 151.976562 262.210938 C 153.699219 263.359375 155.472656 264.421875 157.296875 265.398438 C 159.125 266.375 160.992188 267.261719 162.90625 268.054688 C 164.816406 268.847656 166.761719 269.542969 168.742188 270.144531 C 170.726562 270.746094 172.730469 271.246094 174.761719 271.652344 C 176.789062 272.054688 178.835938 272.359375 180.894531 272.5625 C 182.957031 272.765625 185.019531 272.867188 187.089844 272.867188 C 189.160156 272.867188 191.226562 272.765625 193.285156 272.5625 C 195.34375 272.359375 197.390625 272.054688 199.421875 271.652344 C 201.449219 271.246094 203.457031 270.746094 205.4375 270.144531 C 207.417969 269.542969 209.363281 268.847656 211.277344 268.054688 C 213.1875 267.261719 215.058594 266.375 216.882812 265.398438 C 218.707031 264.421875 220.480469 263.359375 222.203125 262.210938 C 223.921875 261.058594 225.585938 259.828125 227.183594 258.511719 C 228.785156 257.199219 230.316406 255.808594 231.78125 254.347656 C 233.242188 252.882812 234.632812 251.347656 235.945312 249.746094 C 237.257812 248.148438 238.488281 246.484375 239.640625 244.761719 C 240.789062 243.042969 241.851562 241.265625 242.828125 239.441406 C 243.804688 237.613281 244.6875 235.746094 245.480469 233.832031 C 246.273438 231.917969 246.96875 229.96875 247.570312 227.988281 C 248.171875 226.007812 248.671875 224 249.078125 221.96875 C 249.480469 219.9375 249.785156 217.890625 249.988281 215.832031 C 250.191406 213.769531 250.289062 211.703125 250.289062 209.632812 Z M 155.488281 184.339844 L 168.128906 184.339844 L 168.128906 196.984375 L 155.488281 196.984375 Z M 206.050781 247.574219 L 168.128906 247.574219 L 168.128906 234.925781 L 206.050781 234.925781 Z M 218.691406 196.984375 L 206.050781 196.984375 L 206.050781 184.339844 L 218.691406 184.339844 Z M 218.691406 196.984375 " fill-opacity="1" fill-rule="nonzero"/><g clip-path="url(#8fcab1d992)"><path fill="#000000" d="M 161.808594 361.394531 C 160.75 361.394531 159.757812 361.144531 158.824219 360.644531 C 157.890625 360.148438 157.132812 359.457031 156.546875 358.574219 L 145.789062 342.425781 L 117.570312 342.425781 C 117.15625 342.425781 116.742188 342.382812 116.335938 342.304688 C 115.929688 342.222656 115.535156 342.101562 115.152344 341.945312 C 114.765625 341.785156 114.402344 341.589844 114.058594 341.359375 C 113.714844 341.128906 113.394531 340.867188 113.101562 340.574219 C 112.808594 340.277344 112.546875 339.960938 112.316406 339.613281 C 112.082031 339.269531 111.890625 338.90625 111.730469 338.519531 C 111.570312 338.136719 111.453125 337.742188 111.371094 337.335938 C 111.289062 336.929688 111.25 336.515625 111.25 336.101562 L 111.25 321.835938 C 102.023438 323.828125 92.972656 326.4375 84.105469 329.667969 C 75.234375 332.902344 66.628906 336.722656 58.28125 341.136719 C 49.933594 345.546875 41.929688 350.507812 34.261719 356.019531 C 26.597656 361.53125 19.339844 367.539062 12.5 374.042969 L 180.769531 374.042969 L 180.769531 352.65625 L 164.636719 360.726562 C 163.746094 361.171875 162.804688 361.394531 161.808594 361.394531 Z M 161.808594 361.394531 " fill-opacity="1" fill-rule="nonzero"/></g><path fill="#000000" d="M 212.371094 281.085938 C 208.316406 282.550781 204.167969 283.65625 199.921875 284.398438 C 195.675781 285.140625 191.398438 285.511719 187.089844 285.511719 C 182.78125 285.511719 178.503906 285.140625 174.257812 284.398438 C 170.011719 283.65625 165.863281 282.550781 161.808594 281.085938 L 161.808594 307.226562 L 187.089844 322.40625 L 212.371094 307.226562 Z M 212.371094 281.085938 " fill-opacity="1" fill-rule="nonzero"/><path fill="#000000" d="M 123.890625 319.476562 L 123.890625 329.777344 L 149.167969 329.777344 C 150.226562 329.777344 151.21875 330.027344 152.152344 330.523438 C 153.082031 331.023438 153.84375 331.710938 154.429688 332.59375 L 163.972656 346.914062 L 180.769531 338.515625 L 180.769531 333.355469 L 153.777344 317.132812 C 143.757812 317.183594 133.792969 317.964844 123.890625 319.476562 Z M 123.890625 319.476562 " fill-opacity="1" fill-rule="nonzero"/><path fill="#000000" d="M 73.328125 64.191406 C 73.328125 63.789062 73.339844 63.386719 73.367188 62.988281 C 73.394531 62.585938 73.429688 62.1875 73.480469 61.785156 C 73.53125 61.386719 73.597656 60.992188 73.671875 60.597656 C 73.75 60.203125 73.835938 59.808594 73.9375 59.421875 C 74.039062 59.03125 74.152344 58.644531 74.277344 58.261719 C 74.40625 57.882812 74.542969 57.503906 74.691406 57.128906 C 74.839844 56.757812 75.003906 56.390625 75.175781 56.027344 C 75.347656 55.664062 75.53125 55.304688 75.730469 54.953125 C 75.925781 54.601562 76.132812 54.257812 76.347656 53.921875 C 76.566406 53.582031 76.792969 53.25 77.035156 52.929688 C 77.273438 52.605469 77.519531 52.289062 77.78125 51.980469 C 78.039062 51.671875 78.304688 51.375 78.585938 51.082031 C 78.863281 50.792969 79.148438 50.511719 79.445312 50.238281 C 79.738281 49.964844 80.042969 49.703125 80.355469 49.449219 C 80.667969 49.195312 80.988281 48.953125 81.316406 48.722656 C 81.644531 48.488281 81.980469 48.265625 82.320312 48.054688 C 82.664062 47.84375 83.011719 47.644531 83.367188 47.453125 C 83.71875 47.265625 84.082031 47.085938 84.445312 46.921875 C 84.8125 46.753906 85.183594 46.601562 85.558594 46.457031 C 85.933594 46.316406 86.316406 46.183594 86.699219 46.066406 C 87.082031 45.945312 87.472656 45.839844 87.863281 45.746094 C 88.253906 45.652344 88.644531 45.570312 89.042969 45.503906 C 89.4375 45.433594 89.835938 45.378906 90.234375 45.332031 C 90.636719 45.289062 91.035156 45.257812 91.4375 45.242188 C 91.839844 45.222656 92.238281 45.21875 92.640625 45.226562 C 93.042969 45.234375 93.445312 45.253906 93.847656 45.285156 C 94.246094 45.320312 94.644531 45.363281 95.042969 45.421875 C 95.441406 45.480469 95.835938 45.550781 96.230469 45.636719 C 96.621094 45.71875 97.011719 45.816406 97.398438 45.925781 C 97.785156 46.03125 98.171875 46.152344 98.550781 46.285156 C 98.929688 46.417969 99.304688 46.5625 99.675781 46.71875 C 100.042969 46.875 100.410156 47.046875 100.769531 47.226562 C 101.128906 47.40625 101.480469 47.597656 101.828125 47.796875 C 102.175781 48 102.515625 48.214844 102.851562 48.4375 C 103.183594 48.660156 103.511719 48.894531 103.828125 49.140625 C 104.148438 49.386719 104.460938 49.640625 104.761719 49.90625 C 105.066406 50.167969 105.359375 50.441406 105.644531 50.726562 C 105.929688 51.011719 106.207031 51.300781 106.472656 51.601562 C 106.738281 51.902344 106.996094 52.210938 107.242188 52.53125 C 107.488281 52.847656 107.726562 53.171875 107.953125 53.503906 C 108.179688 53.835938 108.394531 54.175781 108.601562 54.519531 C 108.804688 54.867188 109 55.21875 109.179688 55.578125 C 109.363281 55.9375 109.535156 56.300781 109.695312 56.667969 C 109.855469 57.039062 110 57.410156 110.136719 57.789062 C 110.273438 58.167969 110.394531 58.550781 110.507812 58.9375 C 110.617188 59.324219 110.71875 59.714844 110.804688 60.105469 C 110.890625 60.5 110.964844 60.894531 111.027344 61.292969 C 111.089844 61.6875 111.136719 62.089844 111.171875 62.488281 C 111.207031 62.890625 111.230469 63.289062 111.242188 63.691406 C 111.253906 64.09375 111.25 64.496094 111.234375 64.898438 C 111.222656 65.300781 111.195312 65.703125 111.152344 66.101562 C 111.113281 66.5 111.058594 66.898438 110.992188 67.296875 C 110.929688 67.695312 110.851562 68.085938 110.757812 68.480469 C 110.667969 68.871094 110.566406 69.257812 110.449219 69.644531 C 110.332031 70.03125 110.207031 70.410156 110.066406 70.789062 C 109.925781 71.164062 109.773438 71.539062 109.613281 71.90625 C 109.449219 72.273438 109.273438 72.632812 109.085938 72.992188 C 108.902344 73.347656 108.703125 73.695312 108.496094 74.039062 C 108.285156 74.382812 108.066406 74.722656 107.835938 75.050781 C 107.605469 75.378906 107.367188 75.703125 107.117188 76.015625 C 106.863281 76.332031 106.605469 76.636719 106.335938 76.9375 C 106.066406 77.234375 105.785156 77.523438 105.496094 77.804688 C 105.207031 78.082031 104.910156 78.355469 104.605469 78.613281 C 104.300781 78.875 103.988281 79.128906 103.664062 79.367188 L 88.496094 90.75 C 87.703125 91.347656 87.082031 92.089844 86.636719 92.980469 C 86.191406 93.871094 85.96875 94.816406 85.96875 95.808594 L 85.96875 114.78125 L 98.609375 114.78125 L 98.609375 98.972656 L 111.25 89.484375 C 111.785156 89.085938 112.308594 88.664062 112.816406 88.230469 C 113.328125 87.792969 113.820312 87.34375 114.300781 86.875 C 114.78125 86.410156 115.25 85.929688 115.699219 85.429688 C 116.148438 84.933594 116.582031 84.425781 117 83.898438 C 117.417969 83.375 117.816406 82.839844 118.199219 82.289062 C 118.585938 81.738281 118.949219 81.179688 119.296875 80.605469 C 119.644531 80.035156 119.976562 79.449219 120.285156 78.855469 C 120.597656 78.261719 120.886719 77.660156 121.160156 77.046875 C 121.433594 76.433594 121.683594 75.8125 121.917969 75.183594 C 122.152344 74.558594 122.363281 73.921875 122.554688 73.28125 C 122.75 72.636719 122.921875 71.992188 123.070312 71.335938 C 123.222656 70.683594 123.355469 70.027344 123.464844 69.367188 C 123.574219 68.707031 123.660156 68.042969 123.730469 67.375 C 123.796875 66.707031 123.84375 66.039062 123.867188 65.371094 C 123.894531 64.699219 123.894531 64.03125 123.878906 63.359375 C 123.859375 62.6875 123.820312 62.019531 123.761719 61.351562 C 123.703125 60.683594 123.621094 60.019531 123.519531 59.359375 C 123.414062 58.695312 123.292969 58.039062 123.148438 57.382812 C 123.003906 56.726562 122.839844 56.078125 122.652344 55.433594 C 122.46875 54.789062 122.261719 54.152344 122.035156 53.523438 C 121.808594 52.890625 121.5625 52.269531 121.296875 51.652344 C 121.03125 51.039062 120.746094 50.429688 120.441406 49.835938 C 120.140625 49.238281 119.816406 48.648438 119.472656 48.074219 C 119.132812 47.496094 118.773438 46.933594 118.394531 46.378906 C 118.019531 45.824219 117.625 45.285156 117.210938 44.753906 C 116.800781 44.226562 116.371094 43.710938 115.925781 43.210938 C 115.484375 42.707031 115.023438 42.222656 114.546875 41.75 C 114.070312 41.277344 113.582031 40.820312 113.078125 40.378906 C 112.574219 39.9375 112.054688 39.515625 111.523438 39.105469 C 110.992188 38.699219 110.449219 38.308594 109.890625 37.933594 C 109.335938 37.5625 108.765625 37.207031 108.1875 36.867188 C 107.609375 36.53125 107.019531 36.210938 106.421875 35.914062 C 105.820312 35.613281 105.214844 35.332031 104.597656 35.070312 C 103.980469 34.8125 103.355469 34.570312 102.722656 34.347656 C 102.089844 34.128906 101.453125 33.925781 100.808594 33.746094 C 100.160156 33.566406 99.511719 33.40625 98.855469 33.265625 C 98.199219 33.125 97.542969 33.007812 96.878906 32.910156 C 96.214844 32.8125 95.550781 32.738281 94.882812 32.683594 C 94.214844 32.625 93.546875 32.59375 92.878906 32.582031 C 92.207031 32.566406 91.539062 32.578125 90.867188 32.605469 C 90.199219 32.636719 89.53125 32.6875 88.867188 32.761719 C 88.199219 32.832031 87.535156 32.925781 86.878906 33.042969 C 86.21875 33.15625 85.5625 33.292969 84.910156 33.449219 C 84.257812 33.605469 83.613281 33.78125 82.972656 33.980469 C 82.332031 34.179688 81.699219 34.394531 81.074219 34.632812 C 80.445312 34.871094 79.828125 35.128906 79.21875 35.40625 C 78.609375 35.683594 78.007812 35.980469 77.417969 36.296875 C 76.828125 36.609375 76.246094 36.945312 75.675781 37.296875 C 75.105469 37.648438 74.546875 38.019531 74 38.40625 C 73.457031 38.796875 72.921875 39.199219 72.402344 39.621094 C 71.878906 40.042969 71.375 40.480469 70.882812 40.9375 C 70.386719 41.390625 69.910156 41.859375 69.449219 42.34375 C 68.984375 42.828125 68.539062 43.328125 68.105469 43.839844 C 67.675781 44.351562 67.261719 44.878906 66.863281 45.417969 C 66.464844 45.957031 66.085938 46.507812 65.722656 47.074219 C 65.359375 47.636719 65.015625 48.210938 64.6875 48.796875 C 64.363281 49.382812 64.054688 49.976562 63.765625 50.582031 C 63.476562 51.1875 63.210938 51.800781 62.960938 52.421875 C 62.710938 53.042969 62.480469 53.671875 62.273438 54.308594 C 62.0625 54.945312 61.875 55.589844 61.707031 56.238281 C 61.535156 56.886719 61.390625 57.539062 61.261719 58.199219 C 61.136719 58.855469 61.027344 59.519531 60.945312 60.183594 C 60.859375 60.847656 60.796875 61.515625 60.753906 62.183594 C 60.710938 62.851562 60.6875 63.523438 60.6875 64.191406 L 60.6875 70.515625 L 73.328125 70.515625 Z M 73.328125 64.191406 " fill-opacity="1" fill-rule="nonzero"/><path fill="#000000" d="M 85.96875 127.425781 L 98.609375 127.425781 L 98.609375 140.074219 L 85.96875 140.074219 Z M 85.96875 127.425781 " fill-opacity="1" fill-rule="nonzero"/><path fill="#000000" d="M 262.929688 64.191406 C 262.929688 63.789062 262.945312 63.386719 262.96875 62.988281 C 262.996094 62.585938 263.035156 62.1875 263.085938 61.785156 C 263.136719 61.386719 263.199219 60.992188 263.273438 60.597656 C 263.351562 60.203125 263.441406 59.808594 263.539062 59.421875 C 263.640625 59.03125 263.753906 58.644531 263.882812 58.261719 C 264.007812 57.882812 264.144531 57.503906 264.292969 57.128906 C 264.445312 56.757812 264.605469 56.390625 264.777344 56.027344 C 264.949219 55.664062 265.136719 55.304688 265.332031 54.953125 C 265.527344 54.601562 265.734375 54.257812 265.949219 53.921875 C 266.167969 53.582031 266.398438 53.25 266.636719 52.929688 C 266.875 52.605469 267.121094 52.289062 267.382812 51.980469 C 267.640625 51.671875 267.910156 51.375 268.1875 51.082031 C 268.464844 50.792969 268.75 50.511719 269.046875 50.238281 C 269.34375 49.964844 269.644531 49.703125 269.957031 49.449219 C 270.269531 49.195312 270.589844 48.953125 270.917969 48.722656 C 271.246094 48.488281 271.582031 48.265625 271.921875 48.054688 C 272.265625 47.84375 272.613281 47.644531 272.96875 47.453125 C 273.324219 47.265625 273.683594 47.085938 274.050781 46.921875 C 274.414062 46.753906 274.785156 46.601562 275.160156 46.457031 C 275.539062 46.316406 275.917969 46.183594 276.300781 46.066406 C 276.683594 45.945312 277.074219 45.839844 277.464844 45.746094 C 277.855469 45.652344 278.25 45.570312 278.644531 45.503906 C 279.039062 45.433594 279.4375 45.378906 279.835938 45.332031 C 280.238281 45.289062 280.636719 45.257812 281.039062 45.242188 C 281.441406 45.222656 281.84375 45.21875 282.246094 45.226562 C 282.644531 45.234375 283.046875 45.253906 283.449219 45.285156 C 283.847656 45.320312 284.246094 45.363281 284.644531 45.421875 C 285.042969 45.480469 285.4375 45.550781 285.832031 45.636719 C 286.226562 45.71875 286.613281 45.816406 287.003906 45.925781 C 287.390625 46.03125 287.773438 46.152344 288.152344 46.285156 C 288.53125 46.417969 288.90625 46.5625 289.277344 46.71875 C 289.644531 46.875 290.011719 47.046875 290.371094 47.226562 C 290.730469 47.40625 291.082031 47.597656 291.429688 47.796875 C 291.777344 48 292.117188 48.214844 292.453125 48.4375 C 292.785156 48.660156 293.113281 48.894531 293.433594 49.140625 C 293.75 49.386719 294.0625 49.640625 294.363281 49.90625 C 294.667969 50.167969 294.960938 50.441406 295.246094 50.726562 C 295.53125 51.011719 295.808594 51.300781 296.074219 51.601562 C 296.339844 51.902344 296.597656 52.210938 296.84375 52.53125 C 297.09375 52.847656 297.328125 53.171875 297.554688 53.503906 C 297.78125 53.835938 297.996094 54.175781 298.203125 54.519531 C 298.40625 54.867188 298.601562 55.21875 298.785156 55.578125 C 298.964844 55.9375 299.136719 56.300781 299.296875 56.667969 C 299.457031 57.039062 299.605469 57.410156 299.738281 57.789062 C 299.875 58.167969 300 58.550781 300.109375 58.9375 C 300.222656 59.324219 300.320312 59.714844 300.40625 60.105469 C 300.492188 60.5 300.566406 60.894531 300.628906 61.292969 C 300.691406 61.6875 300.738281 62.089844 300.773438 62.488281 C 300.8125 62.890625 300.835938 63.289062 300.84375 63.691406 C 300.855469 64.09375 300.851562 64.496094 300.839844 64.898438 C 300.824219 65.300781 300.796875 65.703125 300.753906 66.101562 C 300.714844 66.5 300.660156 66.898438 300.597656 67.296875 C 300.53125 67.695312 300.453125 68.085938 300.359375 68.480469 C 300.269531 68.871094 300.167969 69.257812 300.050781 69.644531 C 299.9375 70.03125 299.808594 70.410156 299.667969 70.789062 C 299.527344 71.164062 299.378906 71.539062 299.214844 71.90625 C 299.050781 72.273438 298.875 72.632812 298.6875 72.992188 C 298.503906 73.347656 298.304688 73.695312 298.097656 74.039062 C 297.886719 74.382812 297.667969 74.722656 297.4375 75.050781 C 297.207031 75.378906 296.96875 75.703125 296.71875 76.015625 C 296.46875 76.332031 296.207031 76.636719 295.9375 76.9375 C 295.667969 77.234375 295.386719 77.523438 295.097656 77.804688 C 294.8125 78.082031 294.515625 78.355469 294.207031 78.613281 C 293.902344 78.875 293.589844 79.128906 293.265625 79.367188 L 278.097656 90.75 C 277.304688 91.347656 276.683594 92.089844 276.238281 92.980469 C 275.792969 93.871094 275.570312 94.816406 275.570312 95.808594 L 275.570312 114.78125 L 288.210938 114.78125 L 288.210938 98.972656 L 300.851562 89.484375 C 301.386719 89.085938 301.910156 88.664062 302.417969 88.230469 C 302.929688 87.792969 303.421875 87.34375 303.902344 86.875 C 304.386719 86.410156 304.851562 85.929688 305.300781 85.429688 C 305.75 84.933594 306.183594 84.425781 306.601562 83.898438 C 307.019531 83.375 307.417969 82.839844 307.804688 82.289062 C 308.1875 81.738281 308.550781 81.179688 308.898438 80.605469 C 309.246094 80.035156 309.578125 79.449219 309.886719 78.855469 C 310.199219 78.261719 310.488281 77.660156 310.761719 77.046875 C 311.035156 76.433594 311.289062 75.8125 311.519531 75.183594 C 311.753906 74.558594 311.964844 73.921875 312.160156 73.28125 C 312.351562 72.636719 312.523438 71.992188 312.675781 71.335938 C 312.824219 70.683594 312.957031 70.027344 313.066406 69.367188 C 313.175781 68.707031 313.265625 68.042969 313.332031 67.375 C 313.398438 66.707031 313.445312 66.039062 313.46875 65.371094 C 313.496094 64.699219 313.5 64.03125 313.480469 63.359375 C 313.464844 62.6875 313.425781 62.019531 313.363281 61.351562 C 313.304688 60.683594 313.222656 60.019531 313.121094 59.359375 C 313.019531 58.695312 312.894531 58.039062 312.75 57.382812 C 312.605469 56.726562 312.441406 56.078125 312.253906 55.433594 C 312.070312 54.789062 311.863281 54.152344 311.636719 53.523438 C 311.410156 52.890625 311.164062 52.269531 310.898438 51.652344 C 310.632812 51.039062 310.351562 50.429688 310.046875 49.835938 C 309.742188 49.238281 309.417969 48.648438 309.078125 48.074219 C 308.734375 47.496094 308.375 46.933594 308 46.378906 C 307.621094 45.824219 307.226562 45.285156 306.8125 44.753906 C 306.402344 44.226562 305.972656 43.710938 305.53125 43.210938 C 305.085938 42.707031 304.625 42.222656 304.148438 41.75 C 303.675781 41.277344 303.183594 40.820312 302.679688 40.378906 C 302.175781 39.9375 301.65625 39.515625 301.125 39.105469 C 300.59375 38.699219 300.050781 38.308594 299.492188 37.933594 C 298.9375 37.5625 298.371094 37.207031 297.789062 36.867188 C 297.210938 36.53125 296.621094 36.210938 296.023438 35.914062 C 295.425781 35.613281 294.816406 35.332031 294.199219 35.070312 C 293.582031 34.8125 292.957031 34.570312 292.324219 34.347656 C 291.691406 34.128906 291.054688 33.925781 290.410156 33.746094 C 289.765625 33.566406 289.113281 33.40625 288.457031 33.265625 C 287.804688 33.125 287.144531 33.007812 286.480469 32.910156 C 285.820312 32.8125 285.152344 32.738281 284.484375 32.683594 C 283.816406 32.625 283.148438 32.59375 282.480469 32.582031 C 281.808594 32.566406 281.140625 32.578125 280.472656 32.605469 C 279.800781 32.636719 279.132812 32.6875 278.46875 32.761719 C 277.800781 32.832031 277.140625 32.925781 276.480469 33.042969 C 275.820312 33.15625 275.164062 33.292969 274.511719 33.449219 C 273.859375 33.605469 273.214844 33.78125 272.574219 33.980469 C 271.933594 34.179688 271.300781 34.394531 270.675781 34.632812 C 270.050781 34.871094 269.429688 35.128906 268.820312 35.40625 C 268.210938 35.683594 267.609375 35.980469 267.019531 36.296875 C 266.429688 36.609375 265.847656 36.945312 265.277344 37.296875 C 264.707031 37.648438 264.148438 38.019531 263.605469 38.40625 C 263.058594 38.796875 262.523438 39.199219 262.003906 39.621094 C 261.484375 40.042969 260.976562 40.480469 260.484375 40.9375 C 259.992188 41.390625 259.511719 41.859375 259.050781 42.34375 C 258.585938 42.828125 258.140625 43.328125 257.707031 43.839844 C 257.277344 44.351562 256.863281 44.878906 256.464844 45.417969 C 256.066406 45.957031 255.6875 46.507812 255.324219 47.074219 C 254.960938 47.636719 254.617188 48.210938 254.289062 48.796875 C 253.964844 49.382812 253.65625 49.976562 253.367188 50.582031 C 253.082031 51.1875 252.8125 51.800781 252.5625 52.421875 C 252.3125 53.042969 252.082031 53.671875 251.875 54.308594 C 251.664062 54.945312 251.476562 55.589844 251.308594 56.238281 C 251.140625 56.886719 250.992188 57.539062 250.863281 58.199219 C 250.738281 58.855469 250.632812 59.519531 250.546875 60.183594 C 250.460938 60.847656 250.398438 61.515625 250.355469 62.183594 C 250.3125 62.851562 250.289062 63.523438 250.289062 64.191406 L 250.289062 70.515625 L 262.929688 70.515625 Z M 262.929688 64.191406 " fill-opacity="1" fill-rule="nonzero"/><path fill="#000000" d="M 275.570312 127.425781 L 288.210938 127.425781 L 288.210938 140.074219 L 275.570312 140.074219 Z M 275.570312 127.425781 " fill-opacity="1" fill-rule="nonzero"/><path fill="#000000" d="M 168.128906 42.058594 C 168.128906 41.023438 168.230469 39.996094 168.433594 38.976562 C 168.636719 37.957031 168.9375 36.96875 169.332031 36.011719 C 169.730469 35.050781 170.214844 34.140625 170.792969 33.277344 C 171.371094 32.414062 172.023438 31.617188 172.757812 30.882812 C 173.492188 30.148438 174.289062 29.492188 175.152344 28.914062 C 176.015625 28.339844 176.925781 27.851562 177.882812 27.453125 C 178.84375 27.058594 179.832031 26.757812 180.847656 26.554688 C 181.867188 26.351562 182.894531 26.25 183.929688 26.25 C 184.96875 26.25 185.996094 26.351562 187.011719 26.554688 C 188.03125 26.757812 189.019531 27.058594 189.976562 27.453125 C 190.933594 27.851562 191.84375 28.339844 192.707031 28.914062 C 193.570312 29.492188 194.367188 30.148438 195.101562 30.882812 C 195.835938 31.617188 196.492188 32.414062 197.066406 33.277344 C 197.644531 34.140625 198.128906 35.050781 198.527344 36.011719 C 198.925781 36.96875 199.222656 37.957031 199.425781 38.976562 C 199.628906 39.996094 199.730469 41.023438 199.730469 42.058594 C 199.730469 45.128906 199.222656 48.113281 198.207031 51.011719 C 197.191406 53.90625 195.726562 56.554688 193.808594 58.949219 L 174.449219 83.164062 L 174.449219 114.78125 L 199.730469 114.78125 L 199.730469 89.484375 L 215.140625 70.210938 C 216.726562 68.226562 218.132812 66.125 219.363281 63.902344 C 220.59375 61.679688 221.628906 59.371094 222.472656 56.976562 C 223.3125 54.578125 223.945312 52.128906 224.371094 49.625 C 224.796875 47.121094 225.011719 44.597656 225.011719 42.058594 C 225.011719 40.714844 224.945312 39.371094 224.8125 38.03125 C 224.679688 36.691406 224.484375 35.363281 224.222656 34.042969 C 223.957031 32.722656 223.632812 31.417969 223.242188 30.128906 C 222.851562 28.839844 222.398438 27.574219 221.882812 26.332031 C 221.367188 25.085938 220.792969 23.871094 220.160156 22.683594 C 219.527344 21.496094 218.835938 20.34375 218.085938 19.226562 C 217.339844 18.105469 216.539062 17.027344 215.6875 15.984375 C 214.832031 14.945312 213.929688 13.949219 212.976562 12.996094 C 212.027344 12.042969 211.03125 11.140625 209.992188 10.289062 C 208.953125 9.433594 207.871094 8.632812 206.753906 7.886719 C 205.632812 7.136719 204.480469 6.445312 203.296875 5.8125 C 202.109375 5.175781 200.894531 4.601562 199.652344 4.085938 C 198.40625 3.570312 197.144531 3.117188 195.855469 2.726562 C 194.566406 2.335938 193.265625 2.011719 191.945312 1.746094 C 190.625 1.484375 189.296875 1.289062 187.957031 1.15625 C 186.617188 1.023438 185.277344 0.957031 183.929688 0.957031 C 182.585938 0.957031 181.242188 1.023438 179.902344 1.15625 C 178.566406 1.289062 177.234375 1.484375 175.914062 1.746094 C 174.597656 2.011719 173.292969 2.335938 172.003906 2.726562 C 170.71875 3.117188 169.453125 3.570312 168.210938 4.085938 C 166.964844 4.601562 165.75 5.175781 164.566406 5.8125 C 163.378906 6.445312 162.226562 7.136719 161.105469 7.886719 C 159.988281 8.632812 158.910156 9.433594 157.867188 10.289062 C 156.828125 11.140625 155.832031 12.042969 154.882812 12.996094 C 153.929688 13.949219 153.027344 14.945312 152.175781 15.984375 C 151.320312 17.027344 150.519531 18.105469 149.773438 19.226562 C 149.027344 20.34375 148.335938 21.496094 147.699219 22.683594 C 147.066406 23.871094 146.492188 25.085938 145.976562 26.332031 C 145.460938 27.574219 145.007812 28.839844 144.617188 30.128906 C 144.226562 31.417969 143.902344 32.722656 143.640625 34.042969 C 143.375 35.363281 143.179688 36.691406 143.046875 38.03125 C 142.914062 39.371094 142.851562 40.714844 142.851562 42.058594 L 142.851562 45.222656 L 168.128906 45.222656 Z M 168.128906 42.058594 " fill-opacity="1" fill-rule="nonzero"/><path fill="#000000" d="M 187.089844 140.074219 C 186.261719 140.074219 185.4375 140.15625 184.625 140.316406 C 183.808594 140.480469 183.019531 140.71875 182.253906 141.035156 C 181.484375 141.355469 180.757812 141.742188 180.066406 142.207031 C 179.378906 142.667969 178.738281 143.191406 178.152344 143.777344 C 177.566406 144.367188 177.042969 145.003906 176.582031 145.695312 C 176.121094 146.386719 175.730469 147.113281 175.414062 147.882812 C 175.09375 148.648438 174.855469 149.4375 174.691406 150.253906 C 174.53125 151.066406 174.449219 151.890625 174.449219 152.722656 L 199.730469 152.722656 C 199.730469 151.890625 199.648438 151.066406 199.488281 150.253906 C 199.324219 149.4375 199.085938 148.648438 198.769531 147.882812 C 198.449219 147.113281 198.0625 146.386719 197.601562 145.695312 C 197.140625 145.003906 196.613281 144.367188 196.027344 143.777344 C 195.441406 143.191406 194.804688 142.667969 194.113281 142.207031 C 193.421875 141.742188 192.695312 141.355469 191.925781 141.035156 C 191.160156 140.71875 190.371094 140.480469 189.554688 140.316406 C 188.742188 140.15625 187.921875 140.074219 187.089844 140.074219 Z M 187.089844 140.074219 " fill-opacity="1" fill-rule="nonzero"/></svg>