<svg xmlns="http://www.w3.org/2000/svg" xmlns:xlink="http://www.w3.org/1999/xlink" width="500" zoomAndPan="magnify" viewBox="0 0 375 374.999991" height="500" preserveAspectRatio="xMidYMid meet" version="1.0"><defs><clipPath id="de1ccbebea"><path d="M 2 229 L 375 229 L 375 371.53125 L 2 371.53125 Z M 2 229 " clip-rule="nonzero"/></clipPath><clipPath id="64d737e129"><path d="M 147 3.28125 L 176 3.28125 L 176 33 L 147 33 Z M 147 3.28125 " clip-rule="nonzero"/></clipPath></defs><g clip-path="url(#de1ccbebea)"><path stroke-linecap="round" transform="matrix(3.203804, 0, 0, 3.202174, -53.42608, -52.436572)" fill="none" stroke-linejoin="round" d="M 132.540292 115.080232 C 132.57687 114.838697 132.554923 114.602041 132.473233 114.372705 C 132.391543 114.142149 132.261083 113.944529 132.079414 113.779846 C 128.080262 109.960419 124.07989 106.133672 120.079519 102.299607 C 118.41036 100.669854 116.830207 98.980328 114.579465 98.070302 C 111.980016 97.010231 109.259861 96.350279 106.579941 95.519544 C 100.060591 93.52017 93.536364 91.519576 87.009699 89.520201 C 86.292778 89.306723 85.562445 89.151799 84.819919 89.057869 C 84.077394 88.963939 83.33121 88.929782 82.583808 88.956619 C 81.835186 88.984676 81.095099 89.072507 80.361108 89.220112 C 79.627118 89.367717 78.910196 89.575096 78.210345 89.839808 C 71.389839 92.319813 64.449847 94.649774 57.540336 97.000472 C 54.929913 97.899519 53.680178 99.519513 53.670424 101.920226 C 53.675301 102.101987 53.689932 102.283748 53.715537 102.46429 C 53.739922 102.644831 53.77528 102.822933 53.820393 102.999815 C 53.866724 103.176697 53.921591 103.349919 53.986211 103.520701 C 54.052051 103.691484 54.126425 103.857386 54.209335 104.01841 C 54.293463 104.180653 54.386126 104.338017 54.487324 104.489281 C 54.589742 104.640546 54.699475 104.785711 54.816523 104.924777 C 54.93479 105.063842 55.060374 105.195589 55.193272 105.321236 C 55.326171 105.445663 55.465166 105.562771 55.611476 105.67256 C 55.757787 105.781129 55.908974 105.881158 56.066258 105.973869 C 56.224761 106.065359 56.386922 106.148311 56.55274 106.222723 C 56.719778 106.295916 56.890474 106.359349 57.064827 106.414243 C 57.237961 106.469138 57.414753 106.513053 57.593983 106.54721 C 57.773213 106.581366 57.953663 106.605764 58.135332 106.620402 C 58.317 106.633821 58.498669 106.637481 58.681557 106.631381 C 58.863226 106.625282 59.044895 106.608204 59.225344 106.581366 C 59.405794 106.554529 59.583805 106.516713 59.760597 106.470358 C 63.230593 105.470061 66.639627 104.30996 70.080361 103.209633 C 71.989712 102.599696 73.900283 101.929985 75.820607 101.350544 C 75.985207 101.306629 76.152244 101.278572 76.32294 101.267593 C 76.492416 101.255394 76.661892 101.259054 76.831369 101.278572 C 77.000845 101.29809 77.166663 101.333466 77.330043 101.383481 C 77.492204 101.434716 77.649488 101.499369 77.799456 101.579881 C 77.950644 101.659173 78.092077 101.753103 78.224976 101.859232 C 78.359094 101.965361 78.481019 102.083689 78.591971 102.212996 C 78.702923 102.341082 78.801683 102.480148 78.887031 102.627753 C 78.972378 102.775358 79.043095 102.929062 79.1004 103.090085 C 79.169897 103.254768 79.223545 103.424331 79.258903 103.599993 C 79.294261 103.775655 79.31255 103.952537 79.311331 104.131858 C 79.311331 104.30996 79.291823 104.486842 79.255245 104.662504 C 79.218668 104.836946 79.163801 105.006508 79.091865 105.171191 C 79.021148 105.334655 78.933362 105.489579 78.829726 105.635964 C 78.726089 105.782348 78.609041 105.916535 78.478581 106.038522 C 78.346901 106.16051 78.205468 106.267859 78.051842 106.360569 C 77.899435 106.453279 77.738493 106.530132 77.570236 106.589905 C 75.090274 107.469435 72.570077 108.309928 70.070607 109.060151 C 66.070235 110.249529 62.169842 111.690201 58.130455 112.740513 C 57.4684 112.930813 56.794152 113.05768 56.108932 113.119894 C 55.422492 113.182107 54.737271 113.178448 54.052051 113.108915 C 53.36683 113.039382 52.693802 112.905196 52.034186 112.707576 C 51.37457 112.508737 50.739338 112.250123 50.129711 111.930516 C 43.489655 108.619777 36.730113 105.539593 29.999832 102.399636 C 29.54627 102.183719 29.076857 102.008057 28.591594 101.872651 C 28.10755 101.738464 27.614972 101.645754 27.115078 101.594519 C 26.613964 101.544504 26.11407 101.538405 25.611738 101.575001 C 25.110624 101.610378 24.615607 101.689669 24.127906 101.811657 C 23.638985 101.933644 23.165915 102.095888 22.706256 102.299607 C 22.245378 102.503326 21.806447 102.744861 21.388243 103.024212 C 20.970039 103.303563 20.579877 103.617071 20.215321 103.963516 C 19.850764 104.30996 19.519127 104.685681 19.220409 105.08946 C 18.080407 106.620402 17.930439 107.830518 20.029994 108.860092 C 30.009586 113.793264 39.933092 118.760593 49.800513 123.759639 C 51.058783 124.390314 52.392646 124.696503 53.799665 124.679425 C 57.880508 124.679425 61.929649 125.050266 65.989764 125.369874 C 69.380509 125.650445 72.779788 125.800489 76.180287 125.970052 C 78.42981 125.917597 80.617152 125.517478 82.739872 124.769695 C 89.27995 123.020395 95.800519 121.150328 102.310114 119.28026 C 102.64419 119.143634 102.990458 119.061902 103.348919 119.033845 C 103.708599 119.004568 104.063401 119.031406 104.414546 119.113137 C 104.765692 119.194869 105.096109 119.326615 105.4058 119.510816 C 105.71549 119.695017 105.989822 119.920694 106.230015 120.190286 C 110.080419 123.990195 114.150288 127.580286 118.129932 131.249669 " stroke="#000000" stroke-width="2" stroke-opacity="1" stroke-miterlimit="4"/></g><path stroke-linecap="round" transform="matrix(3.203804, 0, 0, 3.202174, -53.42608, -52.436572)" fill="none" stroke-linejoin="round" d="M 27.660084 56.370111 C 26.329878 57.299656 26.329878 58.790342 26.289643 60.120006 C 26.079931 65.999801 27.700319 71.2599 31.999408 75.450169 C 32.646832 76.073525 33.346683 76.632227 34.098963 77.123837 C 34.851243 77.615446 35.642538 78.032643 36.474069 78.375428 C 37.3056 78.716993 38.160297 78.979266 39.041818 79.159807 C 39.922119 79.340349 40.810955 79.436719 41.709545 79.450137 C 43.297013 79.556266 44.874728 79.480634 46.443907 79.222021 C 48.013087 78.963407 49.531058 78.530352 51.000259 77.920415 C 51.629394 77.649602 51.930549 78.020444 52.299983 78.390066 C 53.420477 79.747787 54.703132 80.927405 56.150386 81.930142 C 60.920107 84.710236 65.720309 84.57971 70.570501 82.259508 C 72.462782 81.27263 74.069759 79.939307 75.390211 78.25954 C 75.520671 78.132673 75.631623 77.989947 75.723067 77.832584 C 75.813292 77.67522 75.882789 77.508097 75.927902 77.332435 C 75.974233 77.155553 75.994961 76.977452 75.992522 76.79447 C 75.988864 76.612709 75.962041 76.434607 75.909613 76.260165 " stroke="#000000" stroke-width="2" stroke-opacity="1" stroke-miterlimit="4"/><path stroke-linecap="round" transform="matrix(3.203804, 0, 0, 3.202174, -53.42608, -52.436572)" fill="none" stroke-linejoin="round" d="M 84.000581 78.15951 C 84.085929 78.526692 84.212731 78.878016 84.383426 79.213482 C 84.554122 79.550167 84.761395 79.860015 85.007684 80.146686 C 85.252754 80.432136 85.528306 80.68343 85.835558 80.903008 C 86.14159 81.121365 86.46957 81.300687 86.819495 81.439753 C 88.905639 82.413212 91.099076 82.932879 93.399808 82.999972 C 94.488602 83.054866 95.56886 83.186613 96.639365 83.396431 C 97.708651 83.60503 98.759648 83.889261 99.788698 84.247904 C 100.818967 84.606547 101.817536 85.035943 102.786843 85.537311 C 103.75493 86.038679 104.682782 86.605921 105.570399 87.240256 C 106.210507 87.719667 106.829888 87.459833 107.460242 87.569622 " stroke="#000000" stroke-width="2" stroke-opacity="1" stroke-miterlimit="4"/><path stroke-linecap="round" transform="matrix(3.203804, 0, 0, 3.202174, -53.42608, -52.436572)" fill="none" stroke-linejoin="round" d="M 49.099442 24.999818 C 47.159609 24.649714 46.250046 26.140401 45.10029 27.239508 C 44.667455 27.715259 44.271197 28.219067 43.910298 28.749713 C 43.777399 28.977829 43.615239 29.181548 43.420158 29.35965 C 43.226297 29.537752 43.009269 29.681697 42.771515 29.793925 C 42.532541 29.906154 42.282594 29.979346 42.021674 30.014723 C 41.760754 30.048879 41.499833 30.045219 41.240132 30.000084 C 39.019871 29.719513 37.049557 30.860096 35.240185 32.160482 C 34.556183 32.671609 33.939241 33.253489 33.390577 33.907342 C 32.840693 34.559975 32.373719 35.267502 31.987216 36.028704 C 31.601931 36.791125 31.308091 37.586484 31.105695 38.415998 C 30.903299 39.244293 30.798443 40.086007 30.789908 40.939919 C 30.78747 41.21805 30.824047 41.492522 30.899641 41.759674 C 30.960604 42.040245 31.049609 42.309838 31.120326 42.559912 C 31.70191 42.709957 32.29081 42.762411 32.889463 42.719716 C 33.641743 42.631885 34.387926 42.668481 35.128013 42.829504 C 35.8681 42.990528 36.561856 43.267439 37.210499 43.660239 C 37.651868 43.906653 38.124939 44.016442 38.62971 43.989605 " stroke="#000000" stroke-width="2" stroke-opacity="1" stroke-miterlimit="4"/><path stroke-linecap="round" transform="matrix(3.203804, 0, 0, 3.202174, -53.42608, -52.436572)" fill="none" stroke-linejoin="round" d="M 93.749734 63.929674 C 94.499575 63.850382 94.89949 64.470078 95.370122 64.829941 C 95.804176 65.176386 96.260177 65.491113 96.739344 65.772904 C 97.217292 66.055915 97.712309 66.304769 98.224395 66.518247 C 98.737701 66.732945 99.26198 66.909827 99.799671 67.051333 C 100.337362 67.192838 100.881149 67.295308 101.433471 67.361181 C 101.984574 67.427054 102.538115 67.453891 103.092875 67.441692 C 103.648855 67.430714 104.201177 67.380699 104.748622 67.292868 C 105.297286 67.205037 105.837416 67.07939 106.367791 66.917146 C 106.899386 66.753683 107.416349 66.554844 107.919901 66.319408 C 108.748994 65.972964 109.612225 65.779004 110.509596 65.739968 " stroke="#000000" stroke-width="2" stroke-opacity="1" stroke-miterlimit="4"/><path stroke-linecap="round" transform="matrix(3.203804, 0, 0, 3.202174, -53.42608, -52.436572)" fill="none" stroke-linejoin="round" d="M 31.049609 42.659942 C 30.309522 43.240602 29.590163 43.860298 28.819594 44.410462 C 28.461134 44.684933 28.129497 44.991122 27.824683 45.325368 C 27.521089 45.659613 27.249195 46.019476 27.009002 46.402517 C 26.768809 46.785557 26.563975 47.188116 26.395718 47.607753 C 26.227461 48.02739 26.09822 48.459225 26.006776 48.90204 C 25.916551 49.346074 25.865342 49.793768 25.854369 50.245121 C 25.843396 50.697695 25.872658 51.147829 25.942155 51.594303 C 26.010434 52.041997 26.118947 52.478712 26.266477 52.906888 C 26.414007 53.333844 26.599333 53.744941 26.820018 54.140181 C 27.028511 54.425631 27.182136 54.739139 27.279677 55.079484 C 27.295527 55.278324 27.345516 55.468624 27.429645 55.650385 C 27.513774 55.830927 27.625945 55.99195 27.766159 56.133456 C 27.907592 56.274961 28.068534 56.38719 28.250203 56.470141 C 28.430652 56.554312 28.620856 56.604327 28.819594 56.620186 C 29.130504 56.670201 29.419467 56.880019 29.290226 57.299656 " stroke="#000000" stroke-width="2" stroke-opacity="1" stroke-miterlimit="4"/><path stroke-linecap="round" transform="matrix(3.203804, 0, 0, 3.202174, -53.42608, -52.436572)" fill="none" stroke-linejoin="round" d="M 78.629768 53.670529 C 77.822622 53.76324 77.08985 54.04625 76.430234 54.519562 C 75.152456 55.31736 73.802742 55.962673 72.379873 56.455503 C 70.957004 56.948332 69.497557 57.276478 68.000314 57.439941 C 65.733721 57.757109 63.467128 57.757109 61.200536 57.439941 C 60.525069 57.320394 59.859356 57.35333 59.19974 57.539971 " stroke="#000000" stroke-width="2" stroke-opacity="1" stroke-miterlimit="4"/><path stroke-linecap="round" transform="matrix(3.203804, 0, 0, 3.202174, -53.42608, -52.436572)" fill="none" stroke-linejoin="round" d="M 100.080099 77.699617 C 101.199374 77.678879 102.25281 77.405628 103.240405 76.879862 C 103.423293 76.772513 103.618374 76.70176 103.828085 76.665164 C 104.036578 76.629787 104.24507 76.632227 104.453563 76.672483 C 104.660836 76.712739 104.855916 76.789591 105.035147 76.900599 C 105.215596 77.011608 105.370441 77.151894 105.499682 77.320236 C 106.49947 78.530352 107.96989 79.319611 109.109893 80.500449 C 110.298665 81.670309 111.300892 82.982894 112.115353 84.438204 C 112.929815 85.893514 113.52481 87.434216 113.900341 89.060309 C 113.979592 89.420172 113.900341 89.839808 114.490459 89.770276 " stroke="#000000" stroke-width="2" stroke-opacity="1" stroke-miterlimit="4"/><path stroke-linecap="round" transform="matrix(3.203804, 0, 0, 3.202174, -53.42608, -52.436572)" fill="none" stroke-linejoin="round" d="M 73.360153 63.050144 C 73.360153 64.139492 73.25042 65.23006 73.260174 66.330387 C 73.260174 66.809797 72.850505 66.869571 72.660302 67.150142 C 71.971423 68.259008 71.108192 69.209291 70.070607 69.999769 C 69.55852 70.390129 69.006198 70.707297 68.412422 70.954931 C 67.818645 71.201346 67.202922 71.368469 66.566471 71.4563 C 65.930021 71.542911 65.292351 71.54901 64.653462 71.470938 C 64.015792 71.394086 63.397631 71.236722 62.800196 71.000066 C 61.800408 70.659721 61.229798 70.199829 61.350504 69.099502 " stroke="#000000" stroke-width="2" stroke-opacity="1" stroke-miterlimit="4"/><path stroke-linecap="round" transform="matrix(3.203804, 0, 0, 3.202174, -53.42608, -52.436572)" fill="none" stroke-linejoin="round" d="M 51.800089 66.449935 C 51.859833 67.181859 51.736688 67.882067 51.429436 68.550558 C 51.179489 69.153176 50.986847 69.774093 50.853948 70.414527 C 50.72105 71.053741 50.649114 71.700274 50.63936 72.352907 C 50.628386 73.00676 50.679595 73.654513 50.792985 74.298607 C 50.905157 74.942701 51.078291 75.569716 51.309949 76.179654 C 51.42334 76.681022 51.470891 77.18727 51.450163 77.699617 " stroke="#000000" stroke-width="2" stroke-opacity="1" stroke-miterlimit="4"/><path stroke-linecap="round" transform="matrix(3.203804, 0, 0, 3.202174, -53.42608, -52.436572)" fill="none" stroke-linejoin="round" d="M 114.609946 59.000161 C 114.400235 60.620154 113.269986 61.739999 112.370177 63.000129 C 111.970262 63.540534 111.549619 64.0602 111.18994 64.639641 C 110.979009 64.951929 110.842452 65.294713 110.78149 65.666775 C 110.720527 66.038837 110.740035 66.406019 110.840014 66.769542 C 111.239929 68.350499 110.309638 69.659424 109.659776 70.959811 C 108.795325 72.6164 107.628499 74.022915 106.160518 75.180576 C 105.642335 75.617291 105.215596 76.130859 104.880301 76.720058 " stroke="#000000" stroke-width="2" stroke-opacity="1" stroke-miterlimit="4"/><path stroke-linecap="round" transform="matrix(3.203804, 0, 0, 3.202174, -53.42608, -52.436572)" fill="none" stroke-linejoin="round" d="M 58.770563 56.839763 C 59.289965 57.980346 58.680338 59.079453 58.419418 60.100488 C 58.2853 60.644552 58.090219 61.165438 57.836614 61.665587 C 57.58179 62.164515 57.274538 62.629288 56.914859 63.057463 C 56.553959 63.486859 56.149167 63.8699 55.701701 64.205365 C 55.253016 64.542051 54.77263 64.823842 54.260543 65.049519 C 51.669629 66.280372 51.680602 66.349905 48.870222 65.489893 C 47.759482 65.209322 46.715801 64.768947 45.740398 64.169989 C 45.119798 63.740593 44.869851 62.80007 44.410192 62.109621 C 43.849335 61.177637 43.462832 60.17734 43.249462 59.10995 L 42.070444 59.000161 " stroke="#000000" stroke-width="2" stroke-opacity="1" stroke-miterlimit="4"/><path stroke-linecap="round" transform="matrix(3.203804, 0, 0, 3.202174, -53.42608, -52.436572)" fill="none" stroke-linejoin="round" d="M 53.670424 36.909453 C 54.449527 36.799665 54.760437 37.359587 55.210342 37.840218 C 55.527348 38.217159 55.806557 38.620937 56.047969 39.050333 C 56.289381 39.479729 56.489339 39.928643 56.646623 40.395855 C 56.803906 40.863067 56.917297 41.341257 56.984356 41.829207 C 57.052634 42.317157 57.074581 42.807547 57.050196 43.300376 C 56.985575 44.078656 56.792933 44.823999 56.472269 45.536406 C 56.151606 46.248813 55.721209 46.886807 55.17986 47.450389 C 54.798234 47.943218 54.360522 48.379933 53.867943 48.761754 C 53.374146 49.143575 52.841332 49.458302 52.268283 49.704717 C 51.696453 49.951132 51.101457 50.123134 50.485734 50.218284 C 49.868791 50.314654 49.250629 50.331733 48.630029 50.269519 " stroke="#000000" stroke-width="2" stroke-opacity="1" stroke-miterlimit="4"/><path stroke-linecap="round" transform="matrix(3.203804, 0, 0, 3.202174, -53.42608, -52.436572)" fill="none" stroke-linejoin="round" d="M 45.350237 64.339552 C 45.062493 64.605484 44.75646 64.8458 44.4297 65.060497 C 44.104159 65.275195 43.761549 65.461836 43.405527 65.62164 C 43.048286 65.780223 42.68129 65.90953 42.302102 66.00834 C 41.924134 66.10837 41.541288 66.175463 41.152346 66.212059 C 40.763404 66.248655 40.373243 66.252315 39.983082 66.225478 C 39.59414 66.19864 39.208856 66.138867 38.828448 66.048596 C 38.448041 65.958325 38.078607 65.837558 37.717708 65.687513 C 37.356809 65.536249 37.01176 65.356927 36.680123 65.149548 C 36.120486 64.749429 36.599653 64.150471 36.449684 63.629585 " stroke="#000000" stroke-width="2" stroke-opacity="1" stroke-miterlimit="4"/><path stroke-linecap="round" transform="matrix(3.203804, 0, 0, 3.202174, -53.42608, -52.436572)" fill="none" stroke-linejoin="round" d="M 92.580469 74.409616 C 92.580469 75.019553 92.090329 74.959779 91.759912 75.119583 C 90.113919 75.92348 88.393552 76.51024 86.60003 76.879862 C 86.474447 76.89572 86.358618 76.935976 86.250104 76.999409 C 85.573418 77.38123 84.85162 77.636184 84.084709 77.763051 C 83.319018 77.889918 82.553327 77.882598 81.790074 77.739873 C 80.369643 77.539814 78.900442 77.739873 77.460504 77.660581 C 76.999626 77.660581 76.520459 77.660581 76.049827 77.58007 " stroke="#000000" stroke-width="2" stroke-opacity="1" stroke-miterlimit="4"/><path stroke-linecap="round" transform="matrix(3.203804, 0, 0, 3.202174, -53.42608, -52.436572)" fill="none" stroke-linejoin="round" d="M 80.999997 50.15973 C 81.035356 50.400046 81.013409 50.635481 80.934158 50.864818 C 80.854906 51.094154 80.726884 51.292994 80.550093 51.460116 C 79.869749 52.120069 78.760228 52.679991 78.850453 53.670529 C 78.91995 54.480526 79.95022 54.990433 80.519611 55.669903 C 81.209709 56.488439 81.737646 57.399685 82.102203 58.406082 C 82.46676 59.412478 82.64599 60.450592 82.639894 61.520422 " stroke="#000000" stroke-width="2" stroke-opacity="1" stroke-miterlimit="4"/><g clip-path="url(#64d737e129)"><path stroke-linecap="round" transform="matrix(3.203804, 0, 0, 3.202174, -53.42608, -52.436572)" fill="none" stroke-linejoin="round" d="M 70.549773 18.400297 C 69.857237 18.430794 69.189086 18.578399 68.547759 18.840672 C 67.905212 19.102945 67.326066 19.466468 66.810322 19.93002 C 66.153144 20.60583 65.445977 21.226747 64.69004 21.790329 C 64.609569 21.840343 64.547387 21.908656 64.503494 21.991608 C 64.458382 22.075779 64.437654 22.16483 64.440093 22.25998 C 64.269397 23.360307 64.059686 24.449655 63.869482 25.549982 " stroke="#000000" stroke-width="2" stroke-opacity="1" stroke-miterlimit="4"/></g><path stroke-linecap="round" transform="matrix(3.203804, 0, 0, 3.202174, -53.42608, -52.436572)" fill="none" stroke-linejoin="round" d="M 98.99984 36.089698 C 99.352205 35.77131 99.737489 35.498058 100.154474 35.269942 C 100.571459 35.043045 101.01039 34.867383 101.468829 34.744176 C 101.927269 34.619749 102.395462 34.552656 102.869752 34.539237 C 103.345261 34.527038 103.814674 34.570954 104.280429 34.669764 C 104.786419 34.714899 105.293628 34.714899 105.799619 34.669764 " stroke="#000000" stroke-width="2" stroke-opacity="1" stroke-miterlimit="4"/><path stroke-linecap="round" transform="matrix(3.203804, 0, 0, 3.202174, -53.42608, -52.436572)" fill="none" stroke-linejoin="round" d="M 64.99973 43.479697 C 63.419577 43.379668 61.910141 44.079876 60.31048 43.850539 C 59.310692 43.580947 58.293835 43.417484 57.259907 43.36015 " stroke="#000000" stroke-width="2" stroke-opacity="1" stroke-miterlimit="4"/></svg>