<svg width="50" height="50" viewBox="0 0 50 50" fill="none" xmlns="http://www.w3.org/2000/svg">
<path d="M15.6937 25.5186C15.6708 29.654 18.7041 32.1186 23.5437 30.9978V20.0374C18.6437 18.5457 15.7146 21.5645 15.6937 25.5186ZM23.6916 4.18945H30.3562V35.7374C23.9687 36.7811 17.8479 37.4436 13.4729 34.9978C7.83748 31.8457 7.38331 21.8332 11.8437 17.3728C14.1041 15.1124 18.6583 13.5186 23.5437 14.5582V4.63529C23.5312 4.42487 23.5187 4.21445 23.6916 4.18945ZM41.1687 11.152H34.5041V4.18945H41.1687V11.152Z" fill="#E5D1FF"/>
<path d="M41.169 14.6748C41.1628 19.5831 41.1628 23.1081 41.1628 29.0727C40.8794 34.9331 40.9461 39.5977 38.7982 42.4019C38.3753 42.9561 37.4773 43.7602 36.7253 44.3269C36.094 44.8019 34.8898 45.7665 34.2086 45.8081C33.519 45.8519 31.7503 44.8519 30.9503 44.4748C29.8982 43.9811 28.9273 43.3227 27.8398 42.9956C30.3773 41.4248 32.7815 40.2456 33.7648 37.0706C34.619 34.3081 34.5044 30.3061 34.5044 26.4061C34.5044 22.554 34.5232 18.0769 34.5232 14.6769L41.169 14.6748Z" fill="#E5D1FF"/>
</svg>
