<svg width="46" height="42" viewBox="0 0 46 42" fill="none" xmlns="http://www.w3.org/2000/svg">
<path d="M9.88509 3.72949L6.94759 0.771159C0.0830078 7.58991 0.0830078 12.5316 0.0830078 18.917H2.16634L4.24967 18.7857C4.24967 12.6857 4.24967 9.32533 9.88509 3.72949ZM39.0497 0.771159L36.1163 3.72949C41.7497 9.32533 41.7497 12.6857 41.7497 18.917L45.9163 18.7857C45.9163 12.5316 45.9163 7.58991 39.0497 0.771159ZM22.9997 41.8337C24.2899 41.8353 25.5485 41.4349 26.6007 40.6882C27.6528 39.9414 28.4462 38.8854 28.8705 37.667H17.1288C17.5531 38.8854 18.3465 39.9414 19.3987 40.6882C20.4508 41.4349 21.7095 41.8353 22.9997 41.8337ZM37.583 26.3878V16.8337C37.583 10.1316 33.0309 4.48574 26.8643 2.78783C26.2538 1.25033 24.7622 0.166992 22.9997 0.166992C21.2372 0.166992 19.7455 1.25033 19.1351 2.78783C12.9663 4.48574 8.41634 10.1316 8.41634 16.8337V26.3878L4.86009 29.9441C4.66625 30.1372 4.51253 30.3668 4.40777 30.6196C4.30301 30.8724 4.24928 31.1434 4.24967 31.417V33.5003C4.24967 34.0529 4.46917 34.5828 4.85987 34.9735C5.25057 35.3642 5.78047 35.5837 6.33301 35.5837H39.6663C40.2189 35.5837 40.7488 35.3642 41.1395 34.9735C41.5302 34.5828 41.7497 34.0529 41.7497 33.5003V31.417C41.7501 31.1434 41.6963 30.8724 41.5916 30.6196C41.4868 30.3668 41.3331 30.1372 41.1393 29.9441L37.583 26.3878Z" fill="#E5D1FF"/>
</svg>
