<svg width="42" height="34" viewBox="0 0 42 34" fill="none" xmlns="http://www.w3.org/2000/svg">
<path d="M37.667 0.333496H4.33366C2.03574 0.333496 0.166992 2.20225 0.166992 4.50016V29.5002C0.166992 31.7981 2.03574 33.6668 4.33366 33.6668H37.667C39.9649 33.6668 41.8337 31.7981 41.8337 29.5002V4.50016C41.8337 2.20225 39.9649 0.333496 37.667 0.333496ZM6.41699 9.7085C6.41699 9.43223 6.52674 9.16728 6.72209 8.97193C6.91744 8.77658 7.18239 8.66683 7.45866 8.66683H13.7087C13.9849 8.66683 14.2499 8.77658 14.4452 8.97193C14.6406 9.16728 14.7503 9.43223 14.7503 9.7085V13.8752C14.7503 14.1514 14.6406 14.4164 14.4452 14.6117C14.2499 14.8071 13.9849 14.9168 13.7087 14.9168H7.45866C7.18239 14.9168 6.91744 14.8071 6.72209 14.6117C6.52674 14.4164 6.41699 14.1514 6.41699 13.8752V9.7085ZM18.917 25.3335H6.41699V21.1668H18.917V25.3335ZM35.5837 25.3335H23.0837V21.1668H35.5837V25.3335Z" fill="#E5D1FF"/>
</svg>
