<svg width="30" height="32" viewBox="0 0 30 32" fill="none" xmlns="http://www.w3.org/2000/svg">
<path d="M15 7.80403C15.3315 7.80403 15.6495 7.66725 15.8839 7.4238C16.1183 7.18034 16.25 6.85015 16.25 6.50585V3.9095C16.25 3.56521 16.1183 3.23501 15.8839 2.99155C15.6495 2.7481 15.3315 2.61133 15 2.61133C14.6685 2.61133 14.3505 2.7481 14.1161 2.99155C13.8817 3.23501 13.75 3.56521 13.75 3.9095V6.50585C13.75 6.85015 13.8817 7.18034 14.1161 7.4238C14.3505 7.66725 14.6685 7.80403 15 7.80403Z" fill="#231F20"/>
<path d="M26.25 14.2949H23.75C23.4185 14.2949 23.1005 14.4317 22.8661 14.6751C22.6317 14.9186 22.5 15.2488 22.5 15.5931C22.5 15.9374 22.6317 16.2676 22.8661 16.511C23.1005 16.7545 23.4185 16.8913 23.75 16.8913H26.25C26.5815 16.8913 26.8995 16.7545 27.1339 16.511C27.3683 16.2676 27.5 15.9374 27.5 15.5931C27.5 15.2488 27.3683 14.9186 27.1339 14.6751C26.8995 14.4317 26.5815 14.2949 26.25 14.2949Z" fill="#231F20"/>
<path d="M7.5 15.5931C7.5 15.2488 7.3683 14.9186 7.13388 14.6751C6.89946 14.4317 6.58152 14.2949 6.25 14.2949H3.75C3.41848 14.2949 3.10054 14.4317 2.86612 14.6751C2.6317 14.9186 2.5 15.2488 2.5 15.5931C2.5 15.9374 2.6317 16.2676 2.86612 16.511C3.10054 16.7545 3.41848 16.8913 3.75 16.8913H6.25C6.58152 16.8913 6.89946 16.7545 7.13388 16.511C7.3683 16.2676 7.5 15.9374 7.5 15.5931Z" fill="#231F20"/>
<path d="M7.7748 6.50599C7.53113 6.26671 7.20592 6.13775 6.87069 6.14749C6.53547 6.15722 6.21771 6.30486 5.9873 6.55792C5.75689 6.81098 5.63272 7.14873 5.6421 7.49687C5.65147 7.84501 5.79363 8.17502 6.0373 8.41431L7.8373 10.2188C7.95809 10.3399 8.10115 10.4345 8.25793 10.497C8.4147 10.5594 8.58199 10.5884 8.7498 10.5823C8.91818 10.5816 9.0847 10.5456 9.23935 10.4764C9.39401 10.4073 9.53362 10.3064 9.6498 10.1798C9.88261 9.9366 10.0133 9.60757 10.0133 9.26461C10.0133 8.92166 9.88261 8.59263 9.6498 8.3494L7.7748 6.50599Z" fill="#231F20"/>
<path d="M21.25 10.582C21.5719 10.5806 21.8808 10.4505 22.1125 10.2185L23.9125 8.41403C24.1321 8.17575 24.2561 7.85961 24.2594 7.5298C24.2627 7.2 24.1449 6.88127 23.9301 6.63835C23.7153 6.39542 23.4195 6.24652 23.1028 6.22189C22.7861 6.19726 22.4723 6.29873 22.225 6.50571L20.425 8.34912C20.1922 8.59235 20.0615 8.92137 20.0615 9.26433C20.0615 9.60729 20.1922 9.93632 20.425 10.1795C20.6414 10.4167 20.936 10.5605 21.25 10.582Z" fill="#231F20"/>
<path d="M15 23.3823C14.6685 23.3823 14.3505 23.5191 14.1161 23.7625C13.8817 24.006 13.75 24.3362 13.75 24.6805V27.2768C13.75 27.6211 13.8817 27.9513 14.1161 28.1948C14.3505 28.4383 14.6685 28.575 15 28.575C15.3315 28.575 15.6495 28.4383 15.8839 28.1948C16.1183 27.9513 16.25 27.6211 16.25 27.2768V24.6805C16.25 24.3362 16.1183 24.006 15.8839 23.7625C15.6495 23.5191 15.3315 23.3823 15 23.3823Z" fill="#231F20"/>
<path d="M22.1626 20.9674C21.9239 20.7282 21.6035 20.5971 21.2718 20.6032C20.9401 20.6093 20.6243 20.752 20.3939 20.9999C20.1635 21.2478 20.0373 21.5806 20.0432 21.9251C20.049 22.2696 20.1864 22.5975 20.4251 22.8368L22.2251 24.6802C22.4568 24.9122 22.7658 25.0424 23.0876 25.0437C23.2551 25.0447 23.4211 25.0108 23.5757 24.9439C23.7303 24.877 23.8704 24.7785 23.9876 24.6543C24.1048 24.5336 24.1978 24.39 24.2612 24.2318C24.3247 24.0736 24.3574 23.9039 24.3574 23.7326C24.3574 23.5612 24.3247 23.3915 24.2612 23.2333C24.1978 23.0751 24.1048 22.9315 23.9876 22.8108L22.1626 20.9674Z" fill="#231F20"/>
<path d="M7.83772 20.9676L6.03772 22.772C5.92056 22.8927 5.82756 23.0363 5.7641 23.1945C5.70064 23.3527 5.66797 23.5223 5.66797 23.6937C5.66797 23.8651 5.70064 24.0348 5.7641 24.193C5.82756 24.3512 5.92056 24.4947 6.03772 24.6154C6.15496 24.7397 6.29504 24.8381 6.44965 24.905C6.60425 24.9719 6.77023 25.0059 6.93772 25.0049C7.24586 25.0076 7.54411 24.892 7.77522 24.6803L9.57522 22.8759C9.81391 22.6366 9.9513 22.3086 9.95716 21.9641C9.96302 21.6196 9.83687 21.2869 9.60647 21.039C9.37606 20.7911 9.06027 20.6484 8.72856 20.6423C8.39686 20.6362 8.07641 20.7672 7.83772 21.0065V20.9676Z" fill="#231F20"/>
<path d="M15 10.4004C14.0111 10.4004 13.0444 10.7049 12.2222 11.2755C11.3999 11.8461 10.759 12.6571 10.3806 13.6059C10.0022 14.5548 9.90315 15.5988 10.0961 16.6061C10.289 17.6134 10.7652 18.5387 11.4645 19.2649C12.1637 19.9911 13.0546 20.4856 14.0246 20.686C14.9945 20.8864 15.9998 20.7835 16.9134 20.3905C17.8271 19.9975 18.6079 19.3319 19.1574 18.478C19.7068 17.6241 20 16.6201 20 15.5931C20 14.2159 19.4732 12.8951 18.5355 11.9213C17.5979 10.9475 16.3261 10.4004 15 10.4004ZM15 18.1894C14.5055 18.1894 14.0222 18.0372 13.6111 17.7519C13.2 17.4666 12.8795 17.0611 12.6903 16.5867C12.5011 16.1122 12.4516 15.5902 12.548 15.0866C12.6445 14.5829 12.8826 14.1203 13.2322 13.7572C13.5819 13.3941 14.0273 13.1468 14.5123 13.0466C14.9972 12.9464 15.4999 12.9979 15.9567 13.1944C16.4135 13.3909 16.804 13.7237 17.0787 14.1506C17.3534 14.5776 17.5 15.0796 17.5 15.5931C17.5 16.2817 17.2366 16.9421 16.7678 17.429C16.2989 17.9159 15.663 18.1894 15 18.1894Z" fill="#231F20"/>
</svg>
