<svg width="30" height="32" viewBox="0 0 30 32" fill="none" xmlns="http://www.w3.org/2000/svg">
<path d="M15.3747 29.2559H15.2497C13.5354 29.2424 11.8409 28.8737 10.2654 28.1715C8.68999 27.4694 7.26528 26.4478 6.07473 25.1667C3.86703 22.7148 2.61208 19.5006 2.55206 16.1443C2.49204 12.788 3.63121 9.52756 5.74973 6.99223C7.11458 5.40372 8.83039 4.18309 10.7497 3.43524C10.9737 3.34574 11.2177 3.32508 11.4527 3.37572C11.6876 3.42636 11.9036 3.54617 12.0747 3.72084C12.2332 3.88872 12.3449 4.09816 12.3977 4.3268C12.4506 4.55544 12.4426 4.7947 12.3747 5.01901C11.6897 6.96748 11.5539 9.07846 11.9835 11.1042C12.413 13.13 13.39 14.9865 14.7997 16.4559C16.2226 17.9155 18.0145 18.9267 19.9679 19.3724C21.9213 19.8181 23.9562 19.6801 25.8372 18.9744C26.0611 18.8925 26.3028 18.8786 26.534 18.9341C26.7653 18.9897 26.9765 19.1125 27.143 19.2882C27.3095 19.4638 27.4245 19.6851 27.4744 19.9261C27.5242 20.1671 27.507 20.4178 27.4247 20.649C26.7862 22.4194 25.7886 24.0265 24.4997 25.3614C23.3008 26.6028 21.8774 27.586 20.3114 28.2543C18.7455 28.9227 17.0678 29.2631 15.3747 29.2559ZM9.32473 7.08311C8.69682 7.54045 8.12214 8.07193 7.61223 8.66688C5.8929 10.713 4.9665 13.3493 5.01269 16.0645C5.05889 18.7798 6.07438 21.3805 7.86223 23.3622C8.82288 24.3984 9.97381 25.2241 11.247 25.7904C12.5201 26.3568 13.8897 26.6523 15.2747 26.6596H15.3747C17.0325 26.6586 18.6661 26.2471 20.14 25.4591C21.6139 24.6712 22.8857 23.5295 23.8497 22.1289C21.8852 22.3933 19.8884 22.1865 18.0128 21.5245C16.1371 20.8625 14.4326 19.7628 13.03 18.3099C11.6274 16.857 10.5641 15.0896 9.92183 13.1434C9.27951 11.1973 9.07525 9.12406 9.32473 7.08311Z" fill="#C293FF"/>
</svg>
