<svg xmlns="http://www.w3.org/2000/svg" xmlns:xlink="http://www.w3.org/1999/xlink" width="500" zoomAndPan="magnify" viewBox="0 0 375 374.999991" height="500" preserveAspectRatio="xMidYMid meet" version="1.0"><defs><clipPath id="ccbd88cf0b"><path d="M 234 0.390625 L 370.96875 0.390625 L 370.96875 160 L 234 160 Z M 234 0.390625 " clip-rule="nonzero"/></clipPath><clipPath id="b07d3792bb"><path d="M 4.21875 217 L 277 217 L 277 375 L 4.21875 375 Z M 4.21875 217 " clip-rule="nonzero"/></clipPath></defs><g clip-path="url(#ccbd88cf0b)"><path fill="#040606" d="M 304.136719 0.390625 C 253.28125 0.390625 234.765625 37.402344 234.765625 62.25 L 234.765625 65.773438 C 234.765625 70.125 238.324219 73.28125 242.246094 73.28125 L 263.953125 73.28125 C 268.273438 73.28125 271.429688 69.726562 271.429688 65.773438 L 271.429688 62.25 C 271.429688 61.054688 271.828125 37.035156 304.136719 37.035156 C 325.011719 37.035156 334.085938 44.910156 334.085938 63.015625 C 334.085938 74.84375 320.292969 87.070312 307.695312 97.699219 C 290.34375 111.851562 282.066406 126.835938 282.066406 143.78125 L 282.066406 152.050781 C 282.066406 156.371094 285.625 159.527344 289.546875 159.527344 L 311.21875 159.527344 C 315.570312 159.527344 318.730469 155.972656 318.730469 152.050781 L 318.730469 143.78125 C 318.730469 141.820312 318.730469 136.304688 330.929688 126.039062 C 345.917969 113.847656 371.148438 93.347656 371.148438 63.015625 C 370.75 32.683594 353.398438 0.390625 304.136719 0.390625 " fill-opacity="1" fill-rule="nonzero"/></g><path fill="#040606" d="M 324.644531 199.691406 C 324.644531 212.75 314.042969 223.347656 300.980469 223.347656 C 287.917969 223.347656 277.347656 212.75 277.347656 199.691406 C 277.347656 186.667969 287.917969 176.070312 300.980469 176.070312 C 314.042969 176.070312 324.644531 186.667969 324.644531 199.691406 " fill-opacity="1" fill-rule="nonzero"/><path fill="#040606" d="M 208.375 131.554688 C 208.375 172.683594 177.859375 206.003906 140.199219 206.003906 C 102.539062 206.003906 71.992188 172.683594 71.992188 131.554688 C 71.992188 90.457031 102.539062 57.101562 140.199219 57.101562 C 177.859375 57.101562 208.375 90.457031 208.375 131.554688 " fill-opacity="1" fill-rule="nonzero"/><g clip-path="url(#b07d3792bb)"><path fill="#040606" d="M 226.890625 227.265625 L 204.019531 217.035156 C 186.304688 231.621094 164.234375 240.6875 140.199219 240.6875 C 116.136719 240.6875 94.066406 232.019531 76.347656 217.035156 L 53.480469 227.265625 C 23.53125 240.6875 4.21875 270.621094 4.21875 303.710938 L 4.21875 343.878906 C 4.21875 360.820312 18.011719 374.609375 34.964844 374.609375 L 245.800781 374.609375 C 262.753906 374.609375 276.550781 360.820312 276.550781 343.878906 L 276.550781 303.710938 C 276.148438 270.621094 256.839844 241.054688 226.890625 227.265625 " fill-opacity="1" fill-rule="nonzero"/></g></svg>