<svg xmlns="http://www.w3.org/2000/svg" xmlns:xlink="http://www.w3.org/1999/xlink" width="500" zoomAndPan="magnify" viewBox="0 0 375 374.999991" height="500" preserveAspectRatio="xMidYMid meet" version="1.0"><defs><clipPath id="a969bef168"><path d="M 0 80.390625 L 375 80.390625 L 375 294.890625 L 0 294.890625 Z M 0 80.390625 " clip-rule="nonzero"/></clipPath><clipPath id="a2fd795787"><path d="M 0 268 L 268 268 L 268 294.890625 L 0 294.890625 Z M 0 268 " clip-rule="nonzero"/></clipPath></defs><path fill="#000000" d="M 274.527344 140.71875 C 300.386719 140.71875 321.386719 161.746094 321.386719 187.640625 C 321.386719 213.535156 300.386719 234.5625 274.527344 234.5625 C 248.664062 234.5625 227.664062 213.535156 227.664062 187.640625 C 227.664062 161.746094 248.664062 140.71875 274.527344 140.71875 Z M 274.527344 167.53125 C 263.4375 167.53125 254.441406 176.539062 254.441406 187.640625 C 254.441406 198.742188 263.4375 207.75 274.527344 207.75 C 285.613281 207.75 294.609375 198.742188 294.609375 187.640625 C 294.609375 176.539062 285.613281 167.53125 274.527344 167.53125 " fill-opacity="1" fill-rule="evenodd"/><path fill="#000000" d="M 160.722656 201.046875 L 241.054688 201.046875 C 248.453125 201.046875 254.441406 195.050781 254.441406 187.640625 C 254.441406 180.230469 248.453125 174.234375 241.054688 174.234375 L 147.332031 174.234375 C 139.933594 174.234375 133.945312 180.230469 133.945312 187.640625 L 133.945312 214.453125 C 133.945312 221.863281 139.933594 227.859375 147.332031 227.859375 C 154.734375 227.859375 160.722656 221.863281 160.722656 214.453125 L 160.722656 201.046875 " fill-opacity="1" fill-rule="evenodd"/><path fill="#000000" d="M 200.886719 187.640625 L 200.886719 214.453125 C 200.886719 221.863281 194.898438 227.859375 187.5 227.859375 C 180.101562 227.859375 174.109375 221.863281 174.109375 214.453125 L 174.109375 187.640625 C 174.109375 180.230469 180.101562 174.234375 187.5 174.234375 C 194.898438 174.234375 200.886719 180.230469 200.886719 187.640625 " fill-opacity="1" fill-rule="evenodd"/><g clip-path="url(#a969bef168)"><path fill="#000000" d="M 13.449219 80.390625 C 13.449219 80.390625 210.382812 80.390625 307.996094 80.390625 C 344.972656 80.390625 374.941406 110.398438 374.941406 147.421875 C 374.941406 172.636719 374.941406 202.644531 374.941406 227.859375 C 374.941406 264.882812 344.972656 294.890625 307.996094 294.890625 C 300.597656 294.890625 294.609375 288.894531 294.609375 281.484375 C 294.609375 274.074219 300.597656 268.078125 307.996094 268.078125 C 330.171875 268.078125 348.164062 250.0625 348.164062 227.859375 C 348.164062 202.644531 348.164062 172.636719 348.164062 147.421875 C 348.164062 125.21875 330.171875 107.203125 307.996094 107.203125 C 210.382812 107.203125 13.449219 107.203125 13.449219 107.203125 C 6.046875 107.203125 0.0585938 101.207031 0.0585938 93.796875 C 0.0585938 86.386719 6.046875 80.390625 13.449219 80.390625 " fill-opacity="1" fill-rule="evenodd"/></g><g clip-path="url(#a2fd795787)"><path fill="#000000" d="M 254.441406 294.890625 C 152.144531 294.890625 13.449219 294.890625 13.449219 294.890625 C 6.046875 294.890625 0.0585938 288.894531 0.0585938 281.484375 C 0.0585938 274.074219 6.046875 268.078125 13.449219 268.078125 C 13.449219 268.078125 152.144531 268.078125 254.441406 268.078125 C 261.84375 268.078125 267.832031 274.074219 267.832031 281.484375 C 267.832031 288.894531 261.84375 294.890625 254.441406 294.890625 " fill-opacity="1" fill-rule="evenodd"/></g></svg>