<svg xmlns="http://www.w3.org/2000/svg" xmlns:xlink="http://www.w3.org/1999/xlink" width="500" zoomAndPan="magnify" viewBox="0 0 375 374.999991" height="500" preserveAspectRatio="xMidYMid meet" version="1.0"><defs><clipPath id="97be07772d"><path d="M 13.359375 1 L 359 1 L 359 375 L 13.359375 375 Z M 13.359375 1 " clip-rule="nonzero"/></clipPath></defs><g clip-path="url(#97be07772d)"><path fill="#000000" d="M 146.183594 1.394531 C 102.289062 1.394531 66.488281 37.226562 66.488281 81.15625 C 66.488281 125.085938 102.289062 160.914062 146.183594 160.914062 C 190.078125 160.914062 225.878906 125.085938 225.878906 81.15625 C 225.878906 37.226562 190.078125 1.394531 146.183594 1.394531 Z M 146.183594 160.914062 C 72.921875 160.914062 13.359375 220.523438 13.359375 293.84375 L 39.925781 293.84375 C 39.925781 235.167969 87.554688 187.5 146.183594 187.5 C 170.878906 187.5 193.296875 196.328125 211.351562 210.347656 L 229.925781 191.445312 C 206.992188 172.753906 178.039062 160.914062 146.183594 160.914062 Z M 146.183594 27.980469 C 175.652344 27.980469 199.3125 51.660156 199.3125 81.15625 C 199.3125 110.648438 175.652344 134.328125 146.183594 134.328125 C 116.714844 134.328125 93.054688 110.648438 93.054688 81.15625 C 93.054688 51.660156 116.714844 27.980469 146.183594 27.980469 Z M 310.96875 161.015625 C 302.355469 161.121094 293.742188 164.445312 287.308594 171.089844 L 163.410156 297.167969 L 144.9375 374.851562 L 222.558594 356.46875 L 225.152344 353.769531 L 348.636719 232.363281 C 361.816406 219.488281 362.023438 197.78125 348.84375 184.695312 L 334.941406 170.675781 C 328.402344 164.132812 319.6875 160.914062 310.96875 161.015625 Z M 311.175781 187.394531 C 312.941406 187.394531 314.703125 188.125 316.15625 189.578125 L 330.0625 203.492188 C 332.96875 206.296875 332.96875 210.554688 330.0625 213.464844 L 209.273438 332.167969 L 180.636719 339.125 L 187.484375 310.460938 L 306.300781 189.578125 C 307.648438 188.125 309.414062 187.394531 311.175781 187.394531 Z M 311.175781 187.394531 " fill-opacity="1" fill-rule="nonzero"/></g></svg>